<svg width="160" height="173" viewBox="0 0 160 173" fill="none" xmlns="http://www.w3.org/2000/svg">
    <mask id="path-1-outside-1_7_2" maskUnits="userSpaceOnUse" x="-1" y="-1" width="161" height="174" fill="black">
        <rect fill="white" x="-1" y="-1" width="161" height="174"/>
        <path fill-rule="evenodd" clip-rule="evenodd"
              d="M102.561 49.8687C103.183 44.1793 102.443 37.656 100.63 30.8905C95.9281 13.3437 86.3209 0.67219 71.0037 4.77642C55.6865 8.88065 53.7021 24.6581 58.4038 42.2049C58.8826 43.9919 59.403 45.7307 59.9688 47.4081C55.3073 43.8941 49.1489 41.1828 42.2049 39.3222C24.6581 34.6205 8.88065 36.6049 4.77642 51.9221C0.67219 67.2393 13.3437 76.8465 30.8905 81.5481C33.3618 82.2103 35.7933 82.7576 38.1593 83.1638C32.4014 85.3401 26.5485 89.5227 21.0919 94.9793C8.2467 107.825 2.07645 122.48 13.2894 133.693C24.5024 144.906 39.1582 138.736 52.0034 125.891C53.7423 124.152 55.3709 122.392 56.8576 120.619C55.9009 126.659 56.6018 133.76 58.5818 141.15C63.2835 158.697 72.8907 171.368 88.2079 167.264C103.525 163.16 105.509 147.382 100.808 129.835C100.187 127.519 99.4962 125.283 98.7275 123.157C103.434 126.819 109.746 129.634 116.89 131.548C134.437 136.25 150.215 134.265 154.319 118.948C158.423 103.631 145.752 94.0238 128.205 89.3222C125.734 88.66 123.302 88.1127 120.936 87.7065C126.694 85.5302 132.547 81.3476 138.004 75.8909C150.849 63.0458 157.019 48.3899 145.806 37.1769C134.593 25.964 119.937 32.1342 107.092 44.9794C105.478 46.5931 103.96 48.225 102.561 49.8687ZM93.6205 65.9258C91.9967 66.9464 90.138 67.7542 88.0299 68.319C80.0113 70.4676 73.8266 68.3937 69.0545 63.625C69.0518 65.3257 68.8141 67.1007 68.319 68.9482C66.111 77.1887 61.0094 81.5222 54.2215 83.1736C56.1758 84.0968 58.0465 85.4175 59.8058 87.1769C65.8203 93.1914 67.0332 99.7549 65.0941 106.438C66.8326 105.264 68.8553 104.345 71.1817 103.721C79.1523 101.585 85.311 103.622 90.0713 108.33C89.9534 106.303 90.175 104.166 90.7763 101.922C92.9844 93.6815 98.086 89.3481 104.874 87.6966C102.92 86.7735 101.049 85.4528 99.2895 83.6934C93.7238 78.1277 92.2699 72.0918 93.6205 65.9258Z"/>
    </mask>
    <path fill-rule="evenodd" clip-rule="evenodd"
          d="M102.561 49.8687C103.183 44.1793 102.443 37.656 100.63 30.8905C95.9281 13.3437 86.3209 0.67219 71.0037 4.77642C55.6865 8.88065 53.7021 24.6581 58.4038 42.2049C58.8826 43.9919 59.403 45.7307 59.9688 47.4081C55.3073 43.8941 49.1489 41.1828 42.2049 39.3222C24.6581 34.6205 8.88065 36.6049 4.77642 51.9221C0.67219 67.2393 13.3437 76.8465 30.8905 81.5481C33.3618 82.2103 35.7933 82.7576 38.1593 83.1638C32.4014 85.3401 26.5485 89.5227 21.0919 94.9793C8.2467 107.825 2.07645 122.48 13.2894 133.693C24.5024 144.906 39.1582 138.736 52.0034 125.891C53.7423 124.152 55.3709 122.392 56.8576 120.619C55.9009 126.659 56.6018 133.76 58.5818 141.15C63.2835 158.697 72.8907 171.368 88.2079 167.264C103.525 163.16 105.509 147.382 100.808 129.835C100.187 127.519 99.4962 125.283 98.7275 123.157C103.434 126.819 109.746 129.634 116.89 131.548C134.437 136.25 150.215 134.265 154.319 118.948C158.423 103.631 145.752 94.0238 128.205 89.3222C125.734 88.66 123.302 88.1127 120.936 87.7065C126.694 85.5302 132.547 81.3476 138.004 75.8909C150.849 63.0458 157.019 48.3899 145.806 37.1769C134.593 25.964 119.937 32.1342 107.092 44.9794C105.478 46.5931 103.96 48.225 102.561 49.8687ZM93.6205 65.9258C91.9967 66.9464 90.138 67.7542 88.0299 68.319C80.0113 70.4676 73.8266 68.3937 69.0545 63.625C69.0518 65.3257 68.8141 67.1007 68.319 68.9482C66.111 77.1887 61.0094 81.5222 54.2215 83.1736C56.1758 84.0968 58.0465 85.4175 59.8058 87.1769C65.8203 93.1914 67.0332 99.7549 65.0941 106.438C66.8326 105.264 68.8553 104.345 71.1817 103.721C79.1523 101.585 85.311 103.622 90.0713 108.33C89.9534 106.303 90.175 104.166 90.7763 101.922C92.9844 93.6815 98.086 89.3481 104.874 87.6966C102.92 86.7735 101.049 85.4528 99.2895 83.6934C93.7238 78.1277 92.2699 72.0918 93.6205 65.9258Z"
          fill="black"/>
    <path d="M100.63 30.8905L96.7661 31.9258L100.63 30.8905ZM102.561 49.8687L98.5848 49.434L97.1696 62.3784L105.608 52.4608L102.561 49.8687ZM71.0037 4.77642L69.9684 0.912717V0.912718L71.0037 4.77642ZM58.4038 42.2049L54.5401 43.2402L58.4038 42.2049ZM59.9688 47.4081L57.5609 50.6022L67.8947 58.3923L63.759 46.1298L59.9688 47.4081ZM42.2049 39.3222L43.2402 35.4585H43.2402L42.2049 39.3222ZM4.77642 51.9221L8.64012 52.9573L4.77642 51.9221ZM30.8905 81.5481L31.9258 77.6844L30.8905 81.5481ZM38.1593 83.1638L39.5735 86.9055L53.3221 81.709L38.8362 79.2215L38.1593 83.1638ZM21.0919 94.9793L18.2634 92.1509L21.0919 94.9793ZM13.2894 133.693L10.461 136.522H10.461L13.2894 133.693ZM52.0034 125.891L49.175 123.062L52.0034 125.891ZM56.8576 120.619L60.8084 121.244L63.0664 106.988L53.7925 118.049L56.8576 120.619ZM58.5818 141.15L62.4455 140.114L58.5818 141.15ZM88.2079 167.264L89.2432 171.128H89.2432L88.2079 167.264ZM100.808 129.835L104.671 128.8L100.808 129.835ZM98.7275 123.157L101.184 120L90.2582 111.497L94.9659 124.517L98.7275 123.157ZM116.89 131.548L115.855 135.412H115.855L116.89 131.548ZM154.319 118.948L150.455 117.913V117.913L154.319 118.948ZM128.205 89.3222L129.24 85.4585H129.24L128.205 89.3222ZM120.936 87.7065L119.522 83.9648L105.773 89.1613L120.259 91.6488L120.936 87.7065ZM138.004 75.8909L140.832 78.7194L138.004 75.8909ZM145.806 37.1769L142.978 40.0054V40.0054L145.806 37.1769ZM107.092 44.9794L104.264 42.151V42.151L107.092 44.9794ZM93.6205 65.9258L97.5279 66.7816L99.5693 57.4621L91.4919 62.5392L93.6205 65.9258ZM88.0299 68.319L89.0652 72.1827L88.0299 68.319ZM69.0545 63.625L71.882 60.7956L65.0699 53.9883L65.0545 63.6186L69.0545 63.625ZM68.319 68.9482L64.4553 67.913L64.4553 67.913L68.319 68.9482ZM54.2215 83.1736L53.2759 79.287L42.2873 81.9604L52.5131 86.7905L54.2215 83.1736ZM59.8058 87.1769L62.6343 84.3485H62.6343L59.8058 87.1769ZM65.0941 106.438L61.2525 105.324L58.1715 115.943L67.3336 109.753L65.0941 106.438ZM71.1817 103.721L70.1464 99.8575L71.1817 103.721ZM90.0713 108.33L87.2585 111.174L94.6702 118.504L94.0646 108.098L90.0713 108.33ZM90.7763 101.922L94.64 102.957L90.7763 101.922ZM104.874 87.6966L105.819 91.5833L116.808 88.9099L106.582 84.0798L104.874 87.6966ZM99.2895 83.6934L102.118 80.8649H102.118L99.2895 83.6934ZM96.7661 31.9258C98.4927 38.3698 99.1377 44.3769 98.5848 49.434L106.537 50.3035C107.229 43.9818 106.392 36.9421 104.493 29.8552L96.7661 31.9258ZM72.039 8.64012C78.227 6.98205 83.0173 8.63611 86.9854 12.5589C91.1703 16.6961 94.5009 23.4722 96.7661 31.9258L104.493 29.8552C102.057 20.762 98.2331 12.429 92.6097 6.86972C86.7695 1.09615 79.0976 -1.53344 69.9684 0.912717L72.039 8.64012ZM62.2675 41.1697C60.0024 32.7161 59.4987 25.1825 61.0544 19.5071C62.5294 14.1258 65.8509 10.2982 72.039 8.64012L69.9684 0.912718C60.8392 3.35888 55.51 9.47211 53.339 17.3923C51.2486 25.0185 52.1036 34.147 54.5401 43.2402L62.2675 41.1697ZM63.759 46.1298C63.2232 44.541 62.7268 42.8839 62.2675 41.1697L54.5401 43.2402C55.0384 45.0998 55.5829 46.9204 56.1785 48.6864L63.759 46.1298ZM41.1697 43.1859C47.7864 44.9588 53.4295 47.4878 57.5609 50.6022L62.3766 44.214C57.1852 40.3005 50.5115 37.4068 43.2402 35.4585L41.1697 43.1859ZM8.64012 52.9573C10.2982 46.7693 14.1258 43.4478 19.5071 41.9727C25.1825 40.4171 32.7161 40.9208 41.1697 43.1859L43.2402 35.4585C34.147 33.0219 25.0185 32.1669 17.3923 34.2573C9.47211 36.4283 3.35888 41.7576 0.912718 50.8868L8.64012 52.9573ZM31.9258 77.6844C23.4722 75.4193 16.6961 72.0887 12.5589 67.9038C8.63611 63.9357 6.98205 59.1453 8.64012 52.9573L0.912718 50.8868C-1.53344 60.016 1.09615 67.6879 6.86972 73.5281C12.429 79.1515 20.762 82.9753 29.8552 85.4118L31.9258 77.6844ZM38.8362 79.2215C36.6084 78.839 34.2975 78.3199 31.9258 77.6844L29.8552 85.4118C32.4262 86.1007 34.9782 86.6762 37.4823 87.1061L38.8362 79.2215ZM23.9203 97.8078C29.1261 92.602 34.5147 88.8175 39.5735 86.9055L36.745 79.4222C30.2881 81.8627 23.9709 86.4434 18.2634 92.1509L23.9203 97.8078ZM16.1178 130.865C11.5879 126.335 10.6252 121.359 12.0384 115.962C13.5288 110.269 17.7319 103.996 23.9203 97.8078L18.2634 92.1509C11.6067 98.8076 6.30201 106.286 4.29926 113.935C2.21931 121.88 3.77796 129.839 10.461 136.522L16.1178 130.865ZM49.175 123.062C42.9865 129.251 36.7141 133.454 31.0212 134.944C25.6233 136.358 20.6478 135.395 16.1178 130.865L10.461 136.522C17.144 143.205 25.1029 144.763 33.0474 142.684C40.6971 140.681 48.1751 135.376 54.8318 128.719L49.175 123.062ZM53.7925 118.049C52.3913 119.72 50.8437 121.394 49.175 123.062L54.8318 128.719C56.641 126.91 58.3504 125.064 59.9228 123.189L53.7925 118.049ZM62.4455 140.114C60.5568 133.066 59.9668 126.558 60.8084 121.244L52.9069 119.993C51.8349 126.761 52.6467 134.455 54.7181 142.185L62.4455 140.114ZM87.1726 163.4C80.9846 165.058 76.1943 163.404 72.2262 159.481C68.0413 155.344 64.7107 148.568 62.4455 140.114L54.7181 142.185C57.1547 151.278 60.9785 159.611 66.6019 165.171C72.4421 170.944 80.114 173.574 89.2432 171.128L87.1726 163.4ZM96.9441 130.871C99.2092 139.324 99.7129 146.858 98.1572 152.533C96.6821 157.914 93.3606 161.742 87.1726 163.4L89.2432 171.128C98.3724 168.681 103.702 162.568 105.873 154.648C107.963 147.022 107.108 137.893 104.671 128.8L96.9441 130.871ZM94.9659 124.517C95.6907 126.521 96.3484 128.647 96.9441 130.871L104.671 128.8C104.026 126.39 103.302 124.044 102.489 121.796L94.9659 124.517ZM117.926 127.684C111.115 125.86 105.342 123.235 101.184 120L96.2708 126.313C101.526 130.403 108.378 133.408 115.855 135.412L117.926 127.684ZM150.455 117.913C148.797 124.101 144.97 127.422 139.588 128.898C133.913 130.453 126.379 129.95 117.926 127.684L115.855 135.412C124.948 137.848 134.077 138.703 141.703 136.613C149.623 134.442 155.736 129.113 158.183 119.984L150.455 117.913ZM127.17 93.1859C135.623 95.451 142.399 98.7816 146.536 102.967C150.459 106.935 152.113 111.725 150.455 117.913L158.183 119.984C160.629 110.854 157.999 103.182 152.226 97.3422C146.666 91.7188 138.333 87.895 129.24 85.4585L127.17 93.1859ZM120.259 91.6488C122.487 92.0313 124.798 92.5504 127.17 93.1859L129.24 85.4585C126.669 84.7696 124.117 84.1941 121.613 83.7642L120.259 91.6488ZM135.175 73.0625C129.969 78.2683 124.581 82.0528 119.522 83.9648L122.35 91.4481C128.807 89.0076 135.124 84.4269 140.832 78.7194L135.175 73.0625ZM142.978 40.0054C147.507 44.5353 148.47 49.5109 147.057 54.9088C145.567 60.6016 141.364 66.8741 135.175 73.0625L140.832 78.7194C147.489 72.0626 152.793 64.5846 154.796 56.9349C156.876 48.9904 155.317 41.0315 148.634 34.3485L142.978 40.0054ZM109.92 47.8078C116.109 41.6194 122.381 37.4164 128.074 35.9259C133.472 34.5127 138.448 35.4754 142.978 40.0054L148.634 34.3485C141.951 27.6655 133.992 26.1068 126.048 28.1868C118.398 30.1895 110.92 35.4942 104.264 42.151L109.92 47.8078ZM105.608 52.4608C106.928 50.9094 108.372 49.3562 109.92 47.8078L104.264 42.151C102.585 43.83 100.992 45.5407 99.5146 47.2767L105.608 52.4608ZM91.4919 62.5392C90.2318 63.3312 88.7463 63.986 86.9946 64.4553L89.0652 72.1827C91.5297 71.5224 93.7616 70.5617 95.7492 69.3123L91.4919 62.5392ZM86.9946 64.4553C80.3628 66.2323 75.6486 64.5595 71.882 60.7956L66.2271 66.4544C72.0047 72.2279 79.6599 74.7029 89.0652 72.1827L86.9946 64.4553ZM65.0545 63.6186C65.0524 64.9478 64.8669 66.3769 64.4553 67.913L72.1827 69.9835C72.7613 67.8244 73.0512 65.7036 73.0545 63.6314L65.0545 63.6186ZM64.4553 67.913C63.5098 71.4418 62.0106 73.9131 60.2077 75.6559C58.4016 77.4017 56.101 78.5997 53.2759 79.287L55.167 87.0603C59.1299 86.0961 62.7741 84.3017 65.7678 81.4078C68.7647 78.5109 70.9203 74.6952 72.1827 69.9835L64.4553 67.913ZM52.5131 86.7905C54.0188 87.5017 55.5166 88.5446 56.9774 90.0053L62.6343 84.3485C60.5763 82.2905 58.3329 80.6919 55.9299 79.5568L52.5131 86.7905ZM56.9774 90.0053C59.5531 92.5811 60.943 95.1076 61.5536 97.5332C62.1652 99.9627 62.0588 102.545 61.2525 105.324L68.9357 107.553C70.0685 103.649 70.3252 99.6071 69.3115 95.5803C68.2969 91.5496 66.073 87.7872 62.6343 84.3485L56.9774 90.0053ZM67.3336 109.753C68.6754 108.846 70.285 108.103 72.217 107.585L70.1464 99.8575C67.4256 100.587 64.9899 101.681 62.8547 103.124L67.3336 109.753ZM72.217 107.585C78.8132 105.817 83.5074 107.464 87.2585 111.174L92.8841 105.486C87.1145 99.7797 79.4915 97.3535 70.1464 99.8575L72.217 107.585ZM94.0646 108.098C93.9734 106.53 94.1405 104.821 94.64 102.957L86.9126 100.887C86.2095 103.511 85.9334 106.076 86.0781 108.562L94.0646 108.098ZM94.64 102.957C95.5856 99.4285 97.0848 96.9572 98.8877 95.2144C100.694 93.4686 102.994 92.2706 105.819 91.5833L103.928 83.81C99.9655 84.7741 96.3213 86.5686 93.3276 89.4625C90.3307 92.3594 88.1751 96.1751 86.9126 100.887L94.64 102.957ZM106.582 84.0798C105.077 83.3686 103.579 82.3257 102.118 80.8649L96.4611 86.5218C98.5191 88.5798 100.763 90.1784 103.166 91.3135L106.582 84.0798ZM102.118 80.8649C97.4909 76.2379 96.4766 71.5813 97.5279 66.7816L89.7132 65.0699C88.0632 72.6024 89.9568 80.0175 96.4611 86.5218L102.118 80.8649Z"
          fill="white" fill-opacity="0.75" mask="url(#path-1-outside-1_7_2)"/>
    <path fill-rule="evenodd" clip-rule="evenodd"
          d="M91.0369 64.6384C99.5416 62.3596 102.947 47.4924 98.6438 31.4315C94.3403 15.3706 83.9573 4.19807 75.4526 6.47688C66.948 8.7557 63.5423 23.6229 67.8457 39.6838C72.1492 55.7447 82.5323 66.9172 91.0369 64.6384ZM66.6352 64.504C68.914 55.9993 57.7415 45.6163 41.6806 41.3128C25.6197 37.0093 10.7525 40.415 8.47368 48.9196C6.19487 57.4243 17.3674 67.8073 33.4283 72.1108C49.4892 76.4143 64.3564 73.0086 66.6352 64.504ZM22.5538 96.4291C34.3111 84.6717 48.8894 80.1875 55.1152 86.4133C61.3411 92.6392 56.8569 107.217 45.0995 118.975C33.3421 130.732 18.7639 135.216 12.538 128.991C6.3122 122.765 10.7964 108.186 22.5538 96.4291ZM68.1752 107.402C59.6706 109.681 56.2648 124.548 60.5683 140.609C64.8718 156.67 75.2549 167.842 83.7595 165.563C92.2642 163.285 95.6699 148.417 91.3664 132.357C87.0629 116.296 76.6798 105.123 68.1752 107.402ZM117.416 129.558C101.355 125.254 90.1824 114.871 92.4612 106.366C94.74 97.8618 109.607 94.4561 125.668 98.7596C141.729 103.063 152.902 113.446 150.623 121.951C148.344 130.455 133.477 133.861 117.416 129.558ZM103.981 84.457C110.207 90.6829 124.785 86.1987 136.543 74.4413C148.3 62.6839 152.784 48.1057 146.558 41.8798C140.333 35.654 125.754 40.1382 113.997 51.8956C102.24 63.6529 97.7553 78.2312 103.981 84.457Z"
          fill="url(#paint0_linear_7_2)"/>
    <defs>
        <linearGradient id="paint0_linear_7_2" x1="26.7272" y1="31.9608" x2="146.663" y2="120.909"
                        gradientUnits="userSpaceOnUse">
            <stop stop-color="#4E54C8"/>
            <stop offset="1" stop-color="#8F94FB"/>
        </linearGradient>
    </defs>
</svg>
